<?xml version="1.0" encoding="utf-8"?>
<!-- Generator: Adobe Illustrator 23.0.1, SVG Export Plug-In . SVG Version: 6.00 Build 0)  -->
<svg version="1.1" xmlns="http://www.w3.org/2000/svg" xmlns:xlink="http://www.w3.org/1999/xlink" x="0px" y="0px"
	 viewBox="0 0 446 128" enable-background="new 0 0 446 128" xml:space="preserve">
<g id="Layer_1" xmlns:cc="http://creativecommons.org/ns#" xmlns:dc="http://purl.org/dc/elements/1.1/" xmlns:inkscape="http://www.inkscape.org/namespaces/inkscape" xmlns:rdf="http://www.w3.org/1999/02/22-rdf-syntax-ns#" xmlns:sodipodi="http://sodipodi.sourceforge.net/DTD/sodipodi-0.dtd" xmlns:svg="http://www.w3.org/2000/svg">
	<g display="none">
		<path display="inline" fill="none" d="M67.4,51.2c0-3.9-2.9-6.2-7.4-6.2H47.3v12.5h12.6C64.4,57.5,67.4,55.3,67.4,51.2z"/>
		<path display="inline" fill="none" d="M197.1,86.6c6.2-0.1,9.5-5.5,9.5-13.6s-3.3-13.7-9.5-13.7c-6.2,0-9.5,5.5-9.5,13.7
			S190.8,86.6,197.1,86.6z"/>
		<path display="inline" fill="none" d="M69.4,75.5c0-5-3.7-7.5-8.4-7.5H47.3v14.9h13.9C66.3,82.9,69.4,80,69.4,75.5z"/>
		<path display="inline" fill="none" d="M309.9,59.3c-5.4,0-8.2,3.4-9.2,8.8h17.7C317.9,62.8,314.5,59.3,309.9,59.3z"/>
		<path display="inline" fill="none" d="M12,116h422V12H12V116z M384,50.5h6V36.3h13.9v14.2h8.1v8.9h-8.1v21c0,3.5,1.9,4.4,5,4.4
			c1.2,0,4.8-0.1,5.3-0.1v10.4c-1.2,0.4-6.1,0.7-9.9,0.7c-8.4,0-14.3-2.7-14.3-12.3V59.4h-6V50.5z M337.8,50.5h13.7v6.1h0.3
			c3.3-4.8,7.6-7.4,13.8-7.4c9.8,0,15.6,7,15.6,17v29.2H367V69c0-4.7-2.4-8-7-8c-4.7,0-7.9,3.9-7.9,9.5v24.8h-14.3V50.5L337.8,50.5
			L337.8,50.5z M309.7,49.2c6.4,0,11.5,2.1,15.3,5.6c5.3,4.9,8,12.7,7.9,21.8c-0.1,0-32.2,0-32.2,0c0.9,6,4.2,9.8,10.1,9.8
			c3.8,0,6.2-1.7,7.4-4.5h13.9c-1,4-3.6,7.9-7.5,10.6c-3.8,2.6-8.3,4.1-14,4.1c-14.8,0-23.9-10.2-23.9-23.8
			C286.7,59.4,296.1,49.2,309.7,49.2z M258.3,50.5H272v7h0.3c3.2-5.3,7.1-7.5,11.2-7.7c1.3-0.1,2.2,0.1,2.8,0.4v12.3h-0.4
			c-7.5-1-13.3,3.1-13.3,12.8v20.1h-14.3V50.5L258.3,50.5L258.3,50.5z M226.1,50.5h13.7v7h0.3c3.2-5.3,7.1-7.5,11.2-7.7
			c1.3-0.1,2.2,0.1,2.8,0.4v12.3h-0.4c-7.5-1-13.3,3.1-13.3,12.8v20.1h-14.3V50.5z M221.1,73c0,13.5-9.5,23.7-23.9,23.7
			c-14.4,0-24-10.2-24-23.7s9.6-23.7,24-23.7C211.6,49.3,221.1,59.5,221.1,73z M135,32.7h47.8v13.1h-16.3v49.5H151V45.8h-16V32.7z
			 M109.4,50.5h6V36.3h13.9v14.2h8.1v8.9h-8.1v21c0,3.5,1.9,4.4,5,4.4c1.2,0,4.8-0.1,5.3-0.1v10.4c-1.2,0.4-6.1,0.7-9.9,0.7
			c-8.3,0-14.3-2.7-14.3-12.3V59.4h-6V50.5z M90.6,32.7h14.3v11.6H90.6V32.7z M90.6,50.5h14.3v44.8H90.6V50.5z M32,32.7h30.2
			c6.5,0,11.3,1.6,14.6,4.3c3.6,3,5.4,7,5.4,12c0,6.2-3.2,10.2-8.8,12.3v0.3c6.8,2.1,11.2,7.9,11.2,15.3c0,6.3-2.3,10.9-6.4,14
			c-3.7,2.9-8.8,4.5-15.4,4.5H32V32.7z"/>
		<path display="inline" d="M240.4,75.3c0-9.7,5.8-13.8,13.3-12.8h0.4V50.2c-0.6-0.3-1.5-0.5-2.8-0.4c-4.1,0.2-8,2.4-11.2,7.7h-0.3
			v-7h-13.7v44.9h14.3V75.3z"/>
		<path display="inline" d="M352.1,95.3V70.5c0-5.6,3.2-9.5,7.9-9.5c4.6,0,7,3.3,7,8v26.4h14.2V66.2c0-10-5.8-17-15.6-17
			c-6.2,0-10.5,2.6-13.8,7.4h-0.3v-6.1h-13.7v44.8H352.1z"/>
		<path display="inline" d="M272.6,95.4V75.3c0-9.7,5.8-13.8,13.3-12.8h0.4V50.2c-0.6-0.3-1.5-0.5-2.8-0.4c-4.1,0.2-8,2.4-11.2,7.7
			H272v-7h-13.7v44.9H272.6z"/>
		<path display="inline" d="M310.6,96.6c5.7,0,10.2-1.5,14-4.1c3.9-2.7,6.5-6.6,7.5-10.6h-13.9c-1.2,2.8-3.6,4.5-7.4,4.5
			c-5.9,0-9.2-3.8-10.1-9.8c0,0,32.1,0,32.2,0c0.1-9.1-2.6-16.9-7.9-21.8c-3.8-3.5-8.9-5.6-15.3-5.6c-13.6,0-23,10.2-23,23.6
			C286.7,86.4,295.8,96.6,310.6,96.6z M309.9,59.3c4.6,0,8,3.5,8.5,8.8h-17.7C301.7,62.7,304.5,59.3,309.9,59.3z"/>
		<path display="inline" d="M390,83.5c0,9.6,5.9,12.3,14.3,12.3c3.8,0,8.7-0.3,9.9-0.7V84.7c-0.5,0-4.1,0.1-5.3,0.1
			c-3.1,0-5-0.9-5-4.4v-21h8.1v-8.9h-8.1V36.3H390v14.2h-6v8.9h6V83.5z"/>
		<polygon display="inline" points="151,95.3 166.5,95.3 166.5,45.8 182.8,45.8 182.8,32.7 135,32.7 135,45.8 151,45.8 		"/>
		<path display="inline" d="M78.2,90.9c4.1-3.1,6.4-7.7,6.4-14c0-7.4-4.4-13.2-11.2-15.3v-0.3c5.6-2.1,8.8-6.1,8.8-12.3
			c0-5-1.8-9-5.4-12c-3.3-2.7-8.1-4.3-14.6-4.3H32v62.7h30.8C69.4,95.4,74.5,93.8,78.2,90.9z M47.3,45H60c4.5,0,7.4,2.3,7.4,6.2
			c0,4.1-3,6.3-7.5,6.3H47.3V45z M47.3,82.9V68H61c4.7,0,8.4,2.5,8.4,7.5c0,4.5-3.1,7.4-8.2,7.4H47.3z"/>
		<path display="inline" d="M173.2,73c0,13.5,9.6,23.7,24,23.7c14.4,0,23.9-10.2,23.9-23.7s-9.5-23.7-23.9-23.7
			C182.8,49.3,173.2,59.5,173.2,73z M197.1,59.3c6.2,0,9.5,5.6,9.5,13.7s-3.3,13.5-9.5,13.6c-6.3,0-9.5-5.4-9.5-13.6
			S190.9,59.3,197.1,59.3z"/>
		<path display="inline" d="M0,0v128h446V0H0z M434,116H12V12h422V116z"/>
		<rect x="90.6" y="50.5" display="inline" width="14.3" height="44.8"/>
		<path display="inline" d="M115.4,83.5c0,9.6,6,12.3,14.3,12.3c3.8,0,8.7-0.3,9.9-0.7V84.7c-0.5,0-4.1,0.1-5.3,0.1
			c-3.1,0-5-0.9-5-4.4v-21h8.1v-8.9h-8.1V36.3h-13.9v14.2h-6v8.9h6V83.5z"/>
		<rect x="90.6" y="32.7" display="inline" width="14.3" height="11.6"/>
	</g>
</g>
<g id="Layer_2">
	<g>
		<path fill="#FFFFFF" d="M240.4,75.3c0-9.7,5.8-13.8,13.3-12.8h0.4V50.2c-0.6-0.3-1.5-0.5-2.8-0.4c-4.1,0.2-8,2.4-11.2,7.7h-0.3v-7
			h-13.7v44.9h14.3V75.3z"/>
		<path fill="#FFFFFF" d="M352.1,95.3V70.5c0-5.6,3.2-9.5,7.9-9.5c4.6,0,7,3.3,7,8v26.4h14.2V66.2c0-10-5.8-17-15.6-17
			c-6.2,0-10.5,2.6-13.8,7.4h-0.3v-6.1h-13.7v44.8H352.1z"/>
		<path fill="#FFFFFF" d="M272.6,95.4V75.3c0-9.7,5.8-13.8,13.3-12.8h0.4V50.2c-0.6-0.3-1.5-0.5-2.8-0.4c-4.1,0.2-8,2.4-11.2,7.7
			H272v-7h-13.7v44.9H272.6z"/>
		<path fill="#FFFFFF" d="M310.6,96.6c5.7,0,10.2-1.5,14-4.1c3.9-2.7,6.5-6.6,7.5-10.6h-13.9c-1.2,2.8-3.6,4.5-7.4,4.5
			c-5.9,0-9.2-3.8-10.1-9.8c0,0,32.1,0,32.2,0c0.1-9.1-2.6-16.9-7.9-21.8c-3.8-3.5-8.9-5.6-15.3-5.6c-13.6,0-23,10.2-23,23.6
			C286.7,86.4,295.8,96.6,310.6,96.6z M309.9,59.3c4.6,0,8,3.5,8.5,8.8h-17.7C301.7,62.7,304.5,59.3,309.9,59.3z"/>
		<path fill="#FFFFFF" d="M390,83.5c0,9.6,5.9,12.3,14.3,12.3c3.8,0,8.7-0.3,9.9-0.7V84.7c-0.5,0-4.1,0.1-5.3,0.1
			c-3.1,0-5-0.9-5-4.4v-21h8.1v-8.9h-8.1V36.3H390v14.2h-6v8.9h6V83.5z"/>
		<polygon fill="#FFFFFF" points="151,95.3 166.5,95.3 166.5,45.8 182.8,45.8 182.8,32.7 135,32.7 135,45.8 151,45.8 		"/>
		<path fill="#FFFFFF" d="M78.2,90.9c4.1-3.1,6.4-7.7,6.4-14c0-7.4-4.4-13.2-11.2-15.3v-0.3c5.6-2.1,8.8-6.1,8.8-12.3
			c0-5-1.8-9-5.4-12c-3.3-2.7-8.1-4.3-14.6-4.3H32v62.7h30.8C69.4,95.4,74.5,93.8,78.2,90.9z M47.3,45H60c4.5,0,7.4,2.3,7.4,6.2
			c0,4.1-3,6.3-7.5,6.3H47.3V45z M47.3,82.9V68H61c4.7,0,8.4,2.5,8.4,7.5c0,4.5-3.1,7.4-8.2,7.4H47.3z"/>
		<path fill="#FFFFFF" d="M173.2,73c0,13.5,9.6,23.7,24,23.7c14.4,0,23.9-10.2,23.9-23.7s-9.5-23.7-23.9-23.7
			C182.8,49.3,173.2,59.5,173.2,73z M197.1,59.3c6.2,0,9.5,5.6,9.5,13.7s-3.3,13.5-9.5,13.6c-6.3,0-9.5-5.4-9.5-13.6
			S190.9,59.3,197.1,59.3z"/>
		<path fill="#FFFFFF" d="M0,0v128h446V0H0z M434,116H12V12h422V116z"/>
		<rect x="90.6" y="50.5" fill="#FFFFFF" width="14.3" height="44.8"/>
		<path fill="#FFFFFF" d="M115.4,83.5c0,9.6,6,12.3,14.3,12.3c3.8,0,8.7-0.3,9.9-0.7V84.7c-0.5,0-4.1,0.1-5.3,0.1
			c-3.1,0-5-0.9-5-4.4v-21h8.1v-8.9h-8.1V36.3h-13.9v14.2h-6v8.9h6V83.5z"/>
		<rect x="90.6" y="32.7" fill="#FFFFFF" width="14.3" height="11.6"/>
	</g>
</g>
</svg>
